<svg width="246" height="77" viewBox="0 0 246 77" fill="none" xmlns="http://www.w3.org/2000/svg">
<g filter="url(#filter0_d_19_119)">
<path d="M29 0L4 15.9092V56.7188L17.8606 69L17.5554 26.138L29 17.8472L40.4446 26.138L40.1394 69L54 56.7188V15.9092L29 0Z" fill="#252420"/>
<path d="M38.2024 34.5L29 39.3953L19.7975 34.5V48.7917L29 53.6934L38.2024 48.7917V34.5Z" fill="#FF7401"/>
<path d="M78.6875 40.8438H72.4219L71.2031 45.5H66.3438L73.4531 22.75H77.6562L84.8125 45.5H79.9062L78.6875 40.8438ZM73.4219 37.0156H77.6719L75.5469 28.9062L73.4219 37.0156ZM92.3438 38.9844L91.1562 40.3125V45.5H86.7344V21.5H91.1562V34.4688L91.7031 33.6562L94.7656 28.5938H100.031L95.125 35.5625L100.5 45.5H95.4375L92.3438 38.9844ZM110.078 45.5C109.953 45.2396 109.828 44.8021 109.703 44.1875C108.911 45.2708 107.839 45.8125 106.484 45.8125C105.068 45.8125 103.891 45.3438 102.953 44.4062C102.026 43.4688 101.562 42.2552 101.562 40.7656C101.562 38.9948 102.125 37.625 103.25 36.6562C104.385 35.6875 106.016 35.1927 108.141 35.1719H109.484V33.8125C109.484 33.0521 109.354 32.5156 109.094 32.2031C108.833 31.8906 108.453 31.7344 107.953 31.7344C106.849 31.7344 106.297 32.3802 106.297 33.6719H101.875C101.875 32.1094 102.458 30.8229 103.625 29.8125C104.802 28.7917 106.286 28.2812 108.078 28.2812C109.932 28.2812 111.365 28.7656 112.375 29.7344C113.396 30.6927 113.906 32.0677 113.906 33.8594V41.8125C113.927 43.2708 114.135 44.4115 114.531 45.2344V45.5H110.078ZM107.469 42.3438C107.958 42.3438 108.375 42.2448 108.719 42.0469C109.062 41.849 109.318 41.6146 109.484 41.3438V37.8281H108.422C107.672 37.8281 107.078 38.0677 106.641 38.5469C106.214 39.026 106 39.6667 106 40.4688C106 41.7188 106.49 42.3438 107.469 42.3438ZM116.516 36.5312C116.516 33.7604 116.984 31.6927 117.922 30.3281C118.859 28.9635 120.224 28.2812 122.016 28.2812C123.318 28.2812 124.401 28.8438 125.266 29.9688V21.5H129.719V45.5H125.703L125.5 43.7812C124.594 45.1354 123.427 45.8125 122 45.8125C120.229 45.8125 118.875 45.1354 117.938 43.7812C117.01 42.4271 116.536 40.4375 116.516 37.8125V36.5312ZM120.953 37.6406C120.953 39.3073 121.13 40.474 121.484 41.1406C121.839 41.7969 122.438 42.125 123.281 42.125C124.156 42.125 124.818 41.7344 125.266 40.9531V33.2344C124.828 32.401 124.172 31.9844 123.297 31.9844C122.484 31.9844 121.891 32.3125 121.516 32.9688C121.141 33.625 120.953 34.7917 120.953 36.4688V37.6406ZM139.812 45.8125C137.542 45.8125 135.771 45.1354 134.5 43.7812C133.229 42.4271 132.594 40.4896 132.594 37.9688V36.625C132.594 33.9583 133.177 31.901 134.344 30.4531C135.51 29.0052 137.182 28.2812 139.359 28.2812C141.484 28.2812 143.083 28.9635 144.156 30.3281C145.229 31.6823 145.776 33.6927 145.797 36.3594V38.5312H137C137.062 39.7812 137.339 40.6979 137.828 41.2812C138.318 41.8542 139.073 42.1406 140.094 42.1406C141.573 42.1406 142.807 41.6354 143.797 40.625L145.531 43.2969C144.99 44.0469 144.203 44.6562 143.172 45.125C142.141 45.5833 141.021 45.8125 139.812 45.8125ZM137.031 35.4375H141.453V35.0312C141.432 34.0208 141.266 33.2552 140.953 32.7344C140.641 32.2135 140.099 31.9531 139.328 31.9531C138.557 31.9531 137.995 32.2292 137.641 32.7812C137.297 33.3333 137.094 34.2188 137.031 35.4375ZM152.453 28.5938L152.578 30.1562C153.568 28.9062 154.875 28.2812 156.5 28.2812C158.188 28.2812 159.38 29.0417 160.078 30.5625C161.047 29.0417 162.427 28.2812 164.219 28.2812C167.177 28.2812 168.693 30.3281 168.766 34.4219V45.5H164.344V34.7031C164.344 33.724 164.208 33.026 163.938 32.6094C163.667 32.1927 163.208 31.9844 162.562 31.9844C161.74 31.9844 161.125 32.4896 160.719 33.5L160.75 34.0312V45.5H156.328V34.7344C156.328 33.7656 156.198 33.0677 155.938 32.6406C155.677 32.2031 155.214 31.9844 154.547 31.9844C153.786 31.9844 153.182 32.3958 152.734 33.2188V45.5H148.312V28.5938H152.453Z" fill="#252420"/>
<path d="M176.094 28.5938L176.219 30.2656C177.219 28.9427 178.526 28.2812 180.141 28.2812C183.047 28.2812 184.542 30.3177 184.625 34.3906V45.5H180.188V34.7188C180.188 33.7604 180.042 33.0677 179.75 32.6406C179.469 32.2031 178.969 31.9844 178.25 31.9844C177.448 31.9844 176.823 32.3958 176.375 33.2188V45.5H171.938V28.5938H176.094ZM195.828 45.5C195.703 45.2396 195.578 44.8021 195.453 44.1875C194.661 45.2708 193.589 45.8125 192.234 45.8125C190.818 45.8125 189.641 45.3438 188.703 44.4062C187.776 43.4688 187.312 42.2552 187.312 40.7656C187.312 38.9948 187.875 37.625 189 36.6562C190.135 35.6875 191.766 35.1927 193.891 35.1719H195.234V33.8125C195.234 33.0521 195.104 32.5156 194.844 32.2031C194.583 31.8906 194.203 31.7344 193.703 31.7344C192.599 31.7344 192.047 32.3802 192.047 33.6719H187.625C187.625 32.1094 188.208 30.8229 189.375 29.8125C190.552 28.7917 192.036 28.2812 193.828 28.2812C195.682 28.2812 197.115 28.7656 198.125 29.7344C199.146 30.6927 199.656 32.0677 199.656 33.8594V41.8125C199.677 43.2708 199.885 44.4115 200.281 45.2344V45.5H195.828ZM193.219 42.3438C193.708 42.3438 194.125 42.2448 194.469 42.0469C194.812 41.849 195.068 41.6146 195.234 41.3438V37.8281H194.172C193.422 37.8281 192.828 38.0677 192.391 38.5469C191.964 39.026 191.75 39.6667 191.75 40.4688C191.75 41.7188 192.24 42.3438 193.219 42.3438ZM210.344 40.9688C210.344 40.5938 210.161 40.25 209.797 39.9375C209.443 39.6146 208.646 39.1823 207.406 38.6406C205.583 37.901 204.328 37.1354 203.641 36.3438C202.964 35.5521 202.625 34.5677 202.625 33.3906C202.625 31.9115 203.156 30.6927 204.219 29.7344C205.292 28.7656 206.708 28.2812 208.469 28.2812C210.323 28.2812 211.807 28.7604 212.922 29.7188C214.036 30.6771 214.594 31.9635 214.594 33.5781H210.172C210.172 32.2031 209.599 31.5156 208.453 31.5156C207.984 31.5156 207.599 31.6615 207.297 31.9531C206.995 32.2448 206.844 32.651 206.844 33.1719C206.844 33.5469 207.01 33.8802 207.344 34.1719C207.677 34.4531 208.464 34.8594 209.703 35.3906C211.505 36.0573 212.776 36.8021 213.516 37.625C214.266 38.4375 214.641 39.4948 214.641 40.7969C214.641 42.3073 214.073 43.5208 212.938 44.4375C211.802 45.3542 210.312 45.8125 208.469 45.8125C207.229 45.8125 206.135 45.5729 205.188 45.0938C204.24 44.6042 203.495 43.9271 202.953 43.0625C202.422 42.1979 202.156 41.2656 202.156 40.2656H206.359C206.38 41.0365 206.557 41.6146 206.891 42C207.234 42.3854 207.792 42.5781 208.562 42.5781C209.75 42.5781 210.344 42.0417 210.344 40.9688ZM221.703 30.0781C222.661 28.8802 223.839 28.2812 225.234 28.2812C226.776 28.2812 227.948 28.8229 228.75 29.9062C229.552 30.9896 229.958 32.6042 229.969 34.75V45.5H225.531V34.7969C225.531 33.8073 225.375 33.0938 225.062 32.6562C224.76 32.2083 224.266 31.9844 223.578 31.9844C222.776 31.9844 222.151 32.3542 221.703 33.0938V45.5H217.281V21.5H221.703V30.0781ZM241.484 32.8594L240.016 32.7344C238.807 32.7344 237.99 33.2656 237.562 34.3281V45.5H233.125V28.5938H237.297L237.422 30.4219C238.12 28.9948 239.083 28.2812 240.312 28.2812C240.812 28.2812 241.219 28.349 241.531 28.4844L241.484 32.8594Z" fill="#FF7500"/>
</g>
<defs>
<filter id="filter0_d_19_119" x="0" y="0" width="247" height="77" filterUnits="userSpaceOnUse" color-interpolation-filters="sRGB">
<feFlood flood-opacity="0" result="BackgroundImageFix"/>
<feColorMatrix in="SourceAlpha" type="matrix" values="0 0 0 0 0 0 0 0 0 0 0 0 0 0 0 0 0 0 127 0" result="hardAlpha"/>
<feOffset dy="4"/>
<feGaussianBlur stdDeviation="2"/>
<feComposite in2="hardAlpha" operator="out"/>
<feColorMatrix type="matrix" values="0 0 0 0 0 0 0 0 0 0 0 0 0 0 0 0 0 0 0.25 0"/>
<feBlend mode="normal" in2="BackgroundImageFix" result="effect1_dropShadow_19_119"/>
<feBlend mode="normal" in="SourceGraphic" in2="effect1_dropShadow_19_119" result="shape"/>
</filter>
</defs>
</svg>
